PathFileType	4	(X/Y/Z)	 D:\Google Drive\Share to the world\OpenSim\ScaleTool\TRC\Walk_Mkrs2.trc
DataRate	CameraRate	NumFrames	NumMarkers	Units	OrigDataRate	OrigDataStartFrame	OrigNumFrames
100	100	11	34	m	100	403	536
Frame#	time	C7			T10			CLAV			STRN			LSHO			LELB			LWRA			LWRB			LFIN			RSHO			RELB			RWRA			RWRB			RFIN			LASI			RASI			LPSI			RPSI			LTHI			LKNE			LTIB			LANK			LHEE			LTOE			RTHI			RKNE			RTIB			RANK			RHEE			RTOE			RPINKY			LPINKY			INRKNE			INLKNE			
		X1	Y1	Z1	X2	Y2	Z2	X3	Y3	Z3	X4	Y4	Z4	X5	Y5	Z5	X6	Y6	Z6	X7	Y7	Z7	X8	Y8	Z8	X9	Y9	Z9	X10	Y10	Z10	X11	Y11	Z11	X12	Y12	Z12	X13	Y13	Z13	X14	Y14	Z14	X15	Y15	Z15	X16	Y16	Z16	X17	Y17	Z17	X18	Y18	Z18	X19	Y19	Z19	X20	Y20	Z20	X21	Y21	Z21	X22	Y22	Z22	X23	Y23	Z23	X24	Y24	Z24	X25	Y25	Z25	X26	Y26	Z26	X27	Y27	Z27	X28	Y28	Z28	X29	Y29	Z29	X30	Y30	Z30	X31	Y31	Z31	X32	Y32	Z32	X33	Y33	Z33	X34	Y34	Z34	

403	4.0200	-0.272850	1.474560	0.214510	-0.300460	1.227000	0.215740	-0.125570	1.378470	0.221960	-0.090110	1.227260	0.224060	-0.197350	1.436480	0.036670	-0.256620	1.125670	-0.032300	-0.274070	0.866930	-0.011730	-0.326070	0.888590	-0.048400	-0.323870	0.804970	-0.055410	-0.208740	1.453350	0.387470	-0.067110	1.178600	0.488250	0.148120	1.093280	0.388570	0.139150	1.060970	0.439510	0.207270	1.048650	0.420230	-0.093820	0.963660	0.104660	-0.123060	0.961490	0.369170	-0.264290	1.058690	0.167100	-0.274020	1.058930	0.252360	-0.061450	0.669080	0.048060	-0.005660	0.491510	0.073010	0.028310	0.293180	0.056070	0.100640	0.096110	0.093160	0.045360	0.091500	0.130840	0.249410	0.108110	0.146020	-0.186830	0.656500	0.375260	-0.196270	0.466390	0.347590	-0.251510	0.295110	0.351810	-0.308020	0.074050	0.297920	-0.355570	0.102360	0.260490	-0.156620	0.035530	0.250320	-0.206960	0.028300	0.324040	0.217430	0.078310	0.072730	-0.195150	0.470490	0.244860	-0.014480	0.476300	0.179720	
404	4.0300	-0.263980	1.472860	0.212970	-0.291370	1.225260	0.214120	-0.116640	1.376890	0.220580	-0.081020	1.225730	0.223040	-0.188150	1.435030	0.035260	-0.252710	1.125530	-0.033610	-0.274680	0.867180	-0.012870	-0.326580	0.889650	-0.049210	-0.326020	0.805910	-0.055950	-0.200210	1.451700	0.386050	-0.058570	1.177330	0.487430	0.157440	1.095450	0.386730	0.149080	1.062650	0.437520	0.217330	1.051610	0.417990	-0.084050	0.961550	0.104440	-0.114580	0.960200	0.368820	-0.254790	1.056890	0.165750	-0.265000	1.057420	0.250990	-0.054950	0.666020	0.046950	0.001510	0.489330	0.071930	0.042760	0.292520	0.054730	0.122670	0.098150	0.092210	0.067270	0.091670	0.129620	0.271120	0.114690	0.145950	-0.179850	0.655400	0.374850	-0.190760	0.465240	0.347220	-0.248050	0.294610	0.351590	-0.307520	0.074270	0.297840	-0.354740	0.102990	0.260550	-0.156500	0.035520	0.250350	-0.206900	0.028270	0.324030	0.240560	0.083330	0.072530	-0.189580	0.469390	0.244500	-0.007710	0.473520	0.178650	
405	4.0400	-0.255080	1.471100	0.211340	-0.282230	1.223450	0.212450	-0.107680	1.375230	0.219140	-0.071900	1.224130	0.221940	-0.178950	1.433470	0.033770	-0.248310	1.125250	-0.034940	-0.274590	0.867340	-0.013940	-0.326290	0.890580	-0.050080	-0.327270	0.806750	-0.056540	-0.191670	1.449950	0.384590	-0.050280	1.175750	0.486540	0.166340	1.096900	0.384890	0.158520	1.063680	0.435540	0.226880	1.053780	0.415800	-0.074350	0.959330	0.104150	-0.106040	0.958830	0.368390	-0.245310	1.055020	0.164370	-0.255940	1.055840	0.249600	-0.047590	0.663330	0.045810	0.009030	0.487220	0.070800	0.056140	0.291830	0.053500	0.142430	0.099950	0.091380	0.087010	0.091950	0.128600	0.290560	0.120210	0.145870	-0.172830	0.654240	0.374400	-0.185190	0.464050	0.346830	-0.244560	0.294080	0.351380	-0.307020	0.074500	0.297790	-0.353910	0.103650	0.260640	-0.156400	0.035520	0.250380	-0.206830	0.028220	0.324030	0.261250	0.087450	0.072400	-0.183960	0.468230	0.244120	-0.000420	0.470950	0.177530	
406	4.0500	-0.246140	1.469300	0.209650	-0.273040	1.221580	0.210720	-0.098690	1.373510	0.217630	-0.062750	1.222460	0.220760	-0.169750	1.431820	0.032180	-0.243400	1.124810	-0.036280	-0.273790	0.867380	-0.014970	-0.325190	0.891350	-0.051030	-0.327620	0.807460	-0.057190	-0.183110	1.448120	0.383100	-0.042240	1.173890	0.485570	0.174830	1.097630	0.383070	0.167510	1.064040	0.433590	0.235930	1.055140	0.413660	-0.064730	0.957030	0.103750	-0.097440	0.957370	0.367860	-0.235860	1.053110	0.162980	-0.246840	1.054210	0.248200	-0.039240	0.661080	0.044730	0.016980	0.485190	0.069700	0.068450	0.290990	0.052400	0.159810	0.101230	0.090590	0.104440	0.092060	0.127710	0.307670	0.124370	0.145710	-0.165780	0.653010	0.373880	-0.179560	0.462810	0.346410	-0.241030	0.293540	0.351160	-0.306520	0.074770	0.297770	-0.353070	0.104360	0.260780	-0.156310	0.035510	0.250400	-0.206750	0.028170	0.324050	0.279400	0.090400	0.072250	-0.178310	0.467030	0.243690	0.007410	0.468590	0.176440	
407	4.0600	-0.237170	1.467470	0.207890	-0.263820	1.219680	0.208960	-0.089670	1.371760	0.216060	-0.053580	1.220740	0.219490	-0.160540	1.430110	0.030520	-0.237970	1.124200	-0.037630	-0.272270	0.867280	-0.015980	-0.323240	0.891930	-0.052060	-0.327050	0.808010	-0.057920	-0.174510	1.446220	0.381560	-0.034430	1.171760	0.484510	0.182950	1.097610	0.381270	0.176040	1.063720	0.431670	0.244500	1.055670	0.411580	-0.055170	0.954710	0.103220	-0.088780	0.955820	0.367220	-0.226460	1.051180	0.161590	-0.237690	1.052550	0.246810	-0.029920	0.659240	0.043790	0.025420	0.483240	0.068690	0.079760	0.289920	0.051440	0.174740	0.101750	0.089820	0.119480	0.091780	0.126890	0.322410	0.126960	0.145430	-0.158670	0.651720	0.373290	-0.173840	0.461520	0.345950	-0.237440	0.292980	0.350920	-0.306000	0.075090	0.297780	-0.352210	0.105120	0.260960	-0.156240	0.035500	0.250420	-0.206660	0.028100	0.324080	0.294940	0.092010	0.072020	-0.172630	0.465780	0.243190	0.015780	0.466410	0.175410	
408	4.0700	-0.228150	1.465640	0.206070	-0.254570	1.217780	0.207170	-0.080620	1.369980	0.214420	-0.044390	1.219000	0.218130	-0.151340	1.428340	0.028770	-0.232020	1.123410	-0.038990	-0.269980	0.867020	-0.017010	-0.320440	0.892310	-0.053180	-0.325540	0.808360	-0.058740	-0.165860	1.444280	0.379980	-0.026820	1.169420	0.483350	0.190710	1.096850	0.379500	0.184130	1.062720	0.429790	0.252610	1.055330	0.409570	-0.045650	0.952430	0.102560	-0.080050	0.954210	0.366460	-0.217090	1.049240	0.160220	-0.228490	1.050880	0.245420	-0.019730	0.657790	0.043050	0.034390	0.481400	0.067820	0.090160	0.288570	0.050620	0.187250	0.101380	0.089030	0.132110	0.090960	0.126120	0.334820	0.127810	0.145050	-0.151500	0.650390	0.372620	-0.167990	0.460190	0.345440	-0.233770	0.292430	0.350650	-0.305470	0.075480	0.297830	-0.351340	0.105970	0.261170	-0.156180	0.035490	0.250440	-0.206560	0.028020	0.324120	0.307890	0.092140	0.071700	-0.166870	0.464490	0.242590	0.024630	0.464420	0.174480	
409	4.0800	-0.219100	1.463830	0.204200	-0.245300	1.215900	0.205350	-0.071530	1.368200	0.212730	-0.035170	1.217240	0.216690	-0.142140	1.426550	0.026930	-0.225550	1.122460	-0.040370	-0.266880	0.866580	-0.018090	-0.316770	0.892450	-0.054390	-0.323090	0.808500	-0.059640	-0.157150	1.442340	0.378350	-0.019410	1.166890	0.482110	0.198120	1.095340	0.377750	0.191780	1.061020	0.427950	0.260250	1.054120	0.407650	-0.036140	0.950210	0.101760	-0.071250	0.952550	0.365580	-0.207750	1.047330	0.158850	-0.219240	1.049230	0.244030	-0.008900	0.656650	0.042520	0.043870	0.479690	0.067080	0.099730	0.286940	0.049940	0.197470	0.100070	0.088250	0.142440	0.089570	0.125360	0.345020	0.126830	0.144630	-0.144230	0.649000	0.371850	-0.161970	0.458820	0.344860	-0.229980	0.291900	0.350350	-0.304920	0.075960	0.297910	-0.350420	0.106930	0.261410	-0.156120	0.035470	0.250460	-0.206460	0.027920	0.324170	0.318370	0.090740	0.071320	-0.161010	0.463170	0.241890	0.033910	0.462600	0.173670	
410	4.0900	-0.210010	1.462050	0.202280	-0.236010	1.214080	0.203520	-0.062410	1.366450	0.210970	-0.025930	1.215520	0.215170	-0.132950	1.424750	0.025030	-0.218580	1.121350	-0.041770	-0.262900	0.865970	-0.019260	-0.312240	0.892360	-0.055690	-0.319670	0.808420	-0.060650	-0.148380	1.440410	0.376660	-0.012190	1.164200	0.480760	0.205190	1.093090	0.376040	0.198990	1.058620	0.426180	0.267440	1.052020	0.405820	-0.026600	0.948090	0.100840	-0.062400	0.950850	0.364590	-0.198410	1.045450	0.157470	-0.209900	1.047600	0.242620	0.002320	0.655750	0.042170	0.053780	0.478130	0.066460	0.108590	0.285060	0.049390	0.205650	0.097920	0.087500	0.150690	0.087670	0.124620	0.353260	0.124060	0.144250	-0.136840	0.647580	0.370970	-0.155730	0.457420	0.344210	-0.226050	0.291400	0.349990	-0.304320	0.076570	0.298020	-0.349460	0.108040	0.261670	-0.156060	0.035460	0.250490	-0.206360	0.027830	0.324210	0.326620	0.087830	0.070960	-0.154970	0.461800	0.241070	0.043500	0.460970	0.172940	
411	4.1000	-0.200890	1.460340	0.200320	-0.226710	1.212320	0.201680	-0.053270	1.364760	0.209160	-0.016660	1.213840	0.213580	-0.123760	1.422990	0.023050	-0.211110	1.120090	-0.043200	-0.257990	0.865170	-0.020520	-0.306830	0.892020	-0.057080	-0.315280	0.808100	-0.061750	-0.139520	1.438510	0.374910	-0.005180	1.161390	0.479300	0.211920	1.090100	0.374390	0.205750	1.055530	0.424470	0.274160	1.049010	0.404090	-0.017010	0.946120	0.099800	-0.053490	0.949150	0.363490	-0.189030	1.043640	0.156050	-0.200480	1.046020	0.241170	0.013660	0.655030	0.041960	0.064000	0.476720	0.065920	0.116860	0.283000	0.048950	0.212140	0.095100	0.086800	0.157210	0.085460	0.123940	0.359900	0.119650	0.144000	-0.129290	0.646140	0.369980	-0.149230	0.456000	0.343460	-0.221940	0.290960	0.349570	-0.303670	0.077350	0.298170	-0.348410	0.109330	0.261940	-0.156010	0.035450	0.250530	-0.206270	0.027730	0.324230	0.332990	0.083530	0.070680	-0.148680	0.460390	0.240160	0.053300	0.459540	0.172250	
412	4.1100	-0.191760	1.458740	0.198300	-0.217370	1.210660	0.199820	-0.044110	1.363170	0.207290	-0.007350	1.212270	0.211930	-0.114580	1.421270	0.021010	-0.203160	1.118710	-0.044660	-0.252120	0.864190	-0.021870	-0.300550	0.891420	-0.058540	-0.309900	0.807530	-0.062940	-0.130600	1.436690	0.373090	0.001620	1.158470	0.477730	0.218330	1.086390	0.372790	0.212050	1.051750	0.422830	0.280420	1.045100	0.402480	-0.007360	0.944330	0.098670	-0.044520	0.947470	0.362320	-0.179620	1.041950	0.154560	-0.190960	1.044500	0.239680	0.024880	0.654430	0.041800	0.074320	0.475480	0.065400	0.124680	0.280890	0.048630	0.217400	0.091910	0.086210	0.162420	0.083170	0.123360	0.365370	0.113890	0.143930	-0.121550	0.644690	0.368890	-0.142420	0.454590	0.342620	-0.217630	0.290610	0.349100	-0.302950	0.078330	0.298340	-0.347280	0.110870	0.262200	-0.155940	0.035430	0.250580	-0.206160	0.027640	0.324210	0.337920	0.078100	0.070550	-0.142060	0.458940	0.239140	0.063120	0.458340	0.171570	
413	4.1200	-0.182630	1.457290	0.196230	-0.208020	1.209130	0.197930	-0.034940	1.361720	0.205380	0.001990	1.210850	0.210220	-0.105420	1.419640	0.018910	-0.194740	1.117230	-0.046150	-0.245300	0.863030	-0.023280	-0.293410	0.890580	-0.060050	-0.303490	0.806720	-0.064220	-0.121630	1.434970	0.371200	0.008200	1.155500	0.476040	0.224410	1.081970	0.371250	0.217870	1.047310	0.421260	0.286190	1.040280	0.401000	0.002340	0.942780	0.097460	-0.035490	0.945850	0.361080	-0.170160	1.040420	0.153000	-0.181340	1.043080	0.238140	0.035770	0.653950	0.041620	0.084560	0.474430	0.064830	0.132190	0.278860	0.048430	0.221910	0.088660	0.085760	0.166810	0.081090	0.122910	0.370130	0.107170	0.144080	-0.113570	0.643270	0.367680	-0.135270	0.453200	0.341690	-0.213090	0.290390	0.348560	-0.302130	0.079580	0.298530	-0.346010	0.112710	0.262460	-0.155850	0.035410	0.250640	-0.206050	0.027560	0.324150	0.341890	0.071850	0.070600	-0.135080	0.457460	0.238020	0.072810	0.457360	0.170830	
